<svg xmlns="http://www.w3.org/2000/svg" viewBox="0 0 93.76 18.32"><defs><style>.cls-1{fill:#dbb054;}.cls-1,.cls-2,.cls-3,.cls-4,.cls-5,.cls-6{fill-rule:evenodd;}.cls-2{fill:#ffcb62;}.cls-3{fill:#bd2730;}.cls-4{fill:#e32e39;}.cls-5{fill:#2c7a9f;}.cls-6{fill:#62b9d5;}.cls-7{fill:#fff;}</style></defs><title>logo-branco</title><g id="Layer_2" data-name="Layer 2"><g id="Camada_1" data-name="Camada 1"><path class="cls-1" d="M9.7,9.78a1.32,1.32,0,0,1,1,.41l5.77,5.71a1.39,1.39,0,0,1,.08,1.93,1.45,1.45,0,0,1-1.94.22,3.68,3.68,0,0,1-.37-.32c-1.44-1.42-2.88-2.83-4.3-4.25-.22-.22-.34-.2-.55,0Q7.19,15.7,5,17.88a1.42,1.42,0,0,1-2.41-.67A1.39,1.39,0,0,1,3,15.84L6.92,12l1.67-1.72A1.43,1.43,0,0,1,9.7,9.78Z"/><path class="cls-2" d="M9.7,9.78a1.32,1.32,0,0,1,1,.41c1.93,1.9,2.77,2.75,1.34,1.32-.81-.07-1.66.79-2.18,1.4-.24.28-.41.51-.47.58Q7.19,15.7,5,17.88a1.42,1.42,0,0,1-2.41-.67A1.39,1.39,0,0,1,3,15.84L6.92,12l1.67-1.72A1.43,1.43,0,0,1,9.7,9.78Z"/><path class="cls-3" d="M11.19,7.52a1.33,1.33,0,0,0,.42,1c1.9,1.93,3.79,3.86,5.7,5.78a1.4,1.4,0,0,0,1.94.08,1.46,1.46,0,0,0,.22-1.94,3.8,3.8,0,0,0-.33-.37Q17,9.91,14.9,7.76c-.22-.21-.21-.34,0-.55,1.47-1.47,2.94-2.95,4.39-4.43A1.42,1.42,0,0,0,18.63.37a1.37,1.37,0,0,0-1.37.44C16,2.12,14.67,3.43,13.37,4.73c-.56.57-1.14,1.12-1.71,1.68A1.39,1.39,0,0,0,11.19,7.52Z"/><path class="cls-4" d="M11.19,7.52a1.33,1.33,0,0,0,.42,1c1.9,1.93,2.74,2.77,1.32,1.35-.07-.82.78-1.66,1.39-2.18.29-.24.52-.41.58-.48,1.47-1.47,2.94-2.95,4.39-4.43A1.42,1.42,0,0,0,18.63.37a1.37,1.37,0,0,0-1.37.44C16,2.12,14.67,3.43,13.37,4.73c-.56.57-1.14,1.12-1.71,1.68A1.39,1.39,0,0,0,11.19,7.52Z"/><path class="cls-5" d="M8.55,7.19a1.37,1.37,0,0,1-.42,1c-1.9,1.93-3.79,3.85-5.7,5.77a1.4,1.4,0,0,1-1.94.08,1.46,1.46,0,0,1-.22-1.94,3.8,3.8,0,0,1,.33-.37C2,10.3,3.42,8.86,4.84,7.44c.22-.22.21-.34,0-.55C3.37,5.41,1.9,3.93.45,2.45A1.42,1.42,0,0,1,1.11,0,1.39,1.39,0,0,1,2.48.48L6.37,4.41C6.93,5,7.51,5.52,8.08,6.08A1.4,1.4,0,0,1,8.55,7.19Z"/><path class="cls-6" d="M8.55,7.19a1.37,1.37,0,0,1-.42,1C6.23,10.13,5.39,11,6.81,9.54,6.88,8.73,6,7.88,5.42,7.36c-.29-.24-.52-.41-.58-.47C3.37,5.41,1.9,3.93.45,2.45A1.42,1.42,0,0,1,1.11,0,1.39,1.39,0,0,1,2.48.48L6.37,4.41C6.93,5,7.51,5.52,8.08,6.08A1.4,1.4,0,0,1,8.55,7.19Z"/><path class="cls-7" d="M34.94,6c-.2-1.08-1-1.62-2.39-1.62a2.68,2.68,0,0,0-1.71.48A1.48,1.48,0,0,0,30.24,6a1.34,1.34,0,0,0,.37,1,3.09,3.09,0,0,0,1.2.62l2.32.8A4.79,4.79,0,0,1,36,9.54a2.74,2.74,0,0,1,.7,2,2.68,2.68,0,0,1-1.1,2.16,4.58,4.58,0,0,1-2.93.87,4.73,4.73,0,0,1-3-.93A3.2,3.2,0,0,1,28.45,11h1.36a2,2,0,0,0,.77,1.68,3.17,3.17,0,0,0,2,.58,3.08,3.08,0,0,0,1.92-.54,1.57,1.57,0,0,0,.71-1.27,1.54,1.54,0,0,0-.44-1.16,3.33,3.33,0,0,0-1.28-.71l-2-.72a5.88,5.88,0,0,1-2.09-1.1,2.36,2.36,0,0,1-.7-1.86,2.58,2.58,0,0,1,1-2.06,4.25,4.25,0,0,1,2.77-.82,4.13,4.13,0,0,1,2.73.79A3,3,0,0,1,36.3,6Z"/><path class="cls-7" d="M44,3.25h1.7L49.4,14.37H48l-1-2.83H42.58l-1,2.83H40.16Zm-1,7.19h3.69L44.81,5Z"/><path class="cls-7" d="M54.81,13.15h4.95v1.22H53.42V3.25h1.39Z"/><path class="cls-7" d="M62.66,3.25l3.19,9.35,3.2-9.35h1.46L66.57,14.37H65.12L61.2,3.25Z"/><path class="cls-7" d="M76.3,3.25H78l3.73,11.12H80.27l-1-2.83H74.9l-1,2.83H72.48Zm-1,7.19H79L77.13,5Z"/><path class="cls-7" d="M93.48,6.43a3.29,3.29,0,0,1-.73,2.23,3.55,3.55,0,0,1-2.17,1.09l3.18,4.62H92L89.08,9.82h-2v4.55H85.74V3.25h3.87a4.13,4.13,0,0,1,2.87.9A2.92,2.92,0,0,1,93.48,6.43Zm-4,2.42a2.65,2.65,0,0,0,1.9-.61,2.1,2.1,0,0,0,.65-1.61A2.09,2.09,0,0,0,91.42,5a2.56,2.56,0,0,0-1.81-.59H87.13v4.4Z"/></g></g></svg>