<svg xmlns="http://www.w3.org/2000/svg" viewBox="0 0 209.23 47.16"><defs><style>.cls-1{fill:#dbb052;}.cls-1,.cls-2,.cls-3,.cls-4,.cls-5,.cls-6,.cls-7{fill-rule:evenodd;}.cls-2{fill:#fcca60;}.cls-3{fill:#bd2730;}.cls-4{fill:#e32e38;}.cls-5{fill:#277a9f;}.cls-6{fill:#61bbd6;}.cls-7{fill:#535353;}.cls-8{fill:#525252;}</style></defs><title>Asset 2</title><g id="Layer_2" data-name="Layer 2"><g id="Camada_1" data-name="Camada 1"><path class="cls-1" d="M24.29,20A1.65,1.65,0,0,0,22,20l-6.56,6.5a1.61,1.61,0,0,0,0,2.28,1.65,1.65,0,0,0,2.31,0l6.56-6.5A1.61,1.61,0,0,0,24.29,20Z"/><path class="cls-2" d="M24.27,20l-6.53-6.47a1.64,1.64,0,0,0-2.3,0,1.6,1.6,0,0,0,0,2.27L22,22.29c.94.92.6,1.64.6,1.64l1.7-1.64A1.6,1.6,0,0,0,24.27,20Z"/><path class="cls-3" d="M33.54,30.87,27,24.4a1.65,1.65,0,0,0-2.3,0,1.58,1.58,0,0,0,0,2.27l6.55,6.47a1.64,1.64,0,0,0,2.3,0A1.58,1.58,0,0,0,33.54,30.87Z"/><path class="cls-4" d="M27,24.43a1.62,1.62,0,0,0-2.29,0l-6.52,6.43a1.58,1.58,0,0,0,0,2.27,1.64,1.64,0,0,0,2.29,0L27,26.69c.93-.92,1.65-.59,1.65-.59S27.37,24.77,27,24.43Z"/><path class="cls-5" d="M36.41,26.46,29.88,20a1.62,1.62,0,0,0-2.29,0,1.59,1.59,0,0,0,0,2.28l6.53,6.49a1.62,1.62,0,1,0,2.29-2.28Z"/><path class="cls-6" d="M36.39,13.54a1.63,1.63,0,0,0-2.28,0L27.61,20a1.59,1.59,0,0,0,0,2.26c.35.35,1.69,1.64,1.69,1.64s-.34-.71.59-1.64l6.5-6.46A1.6,1.6,0,0,0,36.39,13.54Z"/><path class="cls-7" d="M51,27.51c.57,2.5,2.22,4,5.33,4,3.44,0,4.74-1.74,4.74-3.77s-1-3.45-5.09-4.49-5.74-2.3-5.74-5c0-2.52,1.81-4.86,5.88-4.86s6,2.55,6.2,4.89H60.79c-.44-2-1.74-3.48-4.72-3.48-2.7,0-4.17,1.25-4.17,3.34s1.22,2.91,4.72,3.75c5.33,1.33,6.12,3.48,6.12,5.79,0,2.79-2,5.21-6.45,5.21-4.74,0-6.47-2.77-6.82-5.32Z"/><path class="cls-7" d="M79.44,26.1l-2.38,6.52H75.51l6.94-19h1.81l7.23,19H89.84L87.4,26.1Zm7.48-1.42h0c-2.12-5.59-3.17-8.31-3.58-9.61h0c-.46,1.47-1.65,4.81-3.35,9.61Z"/><polygon class="cls-7" points="105.27 13.6 106.79 13.6 106.79 31.2 116.94 31.2 116.67 32.62 105.27 32.62 105.27 13.6"/><path class="cls-7" d="M132.89,32.62l-7-19h1.62l3.66,9.92c1.06,2.88,2.25,6,2.65,7.63h.06c.4-1.41,1.68-4.73,2.73-7.52l3.79-10H142l-7.28,19Z"/><path class="cls-7" d="M155.61,26.1l-2.38,6.52h-1.55l6.94-19h1.81l7.23,19H166l-2.44-6.52Zm7.47-1.42h0c-2.11-5.59-3.16-8.31-3.57-9.61h0c-.46,1.47-1.65,4.81-3.36,9.61Z"/><path class="cls-7" d="M183,23.76v8.86h-1.54v-19h6.83c3.73,0,5.71,2,5.71,5a4.29,4.29,0,0,1-3.52,4.45c1.92.47,3.22,1.74,3.22,5v.74c0,1.33-.11,3.12.25,3.86h-1.55a12.85,12.85,0,0,1-.27-4v-.49c0-3.1-.89-4.4-4.52-4.4Zm0-1.38h4.55c3.31,0,4.83-1.25,4.83-3.73,0-2.33-1.49-3.63-4.45-3.63H183Z"/><rect class="cls-8" x="208.75" y="0.47" width="0.48" height="18.21"/><rect class="cls-8" x="131.23" width="77.53" height="0.46"/><rect class="cls-8" y="28.49" width="0.48" height="18.68"/><rect class="cls-8" x="0.47" y="46.7" width="70.99" height="0.46"/></g></g></svg>