<svg xmlns="http://www.w3.org/2000/svg" viewBox="0 0 21.94 20.54"><defs><style>.cls-1{fill:#dbb052;}.cls-1,.cls-2,.cls-3,.cls-4,.cls-5,.cls-6{fill-rule:evenodd;}.cls-2{fill:#fcca60;}.cls-3{fill:#bd2730;}.cls-4{fill:#e32e38;}.cls-5{fill:#277a9f;}.cls-6{fill:#61bbd6;}</style></defs><title>Asset 3</title><g id="Layer_2" data-name="Layer 2"><g id="Camada_1" data-name="Camada 1"><path class="cls-1" d="M9.34,6.91a1.64,1.64,0,0,0-2.3,0L.48,13.41a1.59,1.59,0,0,0,0,2.28,1.64,1.64,0,0,0,2.3,0l6.56-6.5A1.59,1.59,0,0,0,9.34,6.91Z"/><path class="cls-2" d="M9.32,6.94,2.79.47A1.64,1.64,0,0,0,.5.47a1.58,1.58,0,0,0,0,2.27L7,9.21c.93.93.59,1.65.59,1.65S9,9.56,9.32,9.21A1.6,1.6,0,0,0,9.32,6.94Z"/><path class="cls-3" d="M18.59,17.8,12,11.33a1.64,1.64,0,0,0-2.3,0,1.6,1.6,0,0,0,0,2.27l6.55,6.47a1.64,1.64,0,0,0,2.3,0A1.58,1.58,0,0,0,18.59,17.8Z"/><path class="cls-4" d="M12.07,11.35a1.64,1.64,0,0,0-2.29,0L3.26,17.79a1.59,1.59,0,0,0,0,2.26,1.62,1.62,0,0,0,2.29,0l6.52-6.44c.93-.92,1.66-.59,1.66-.59Z"/><path class="cls-5" d="M21.46,13.39l-6.53-6.5a1.62,1.62,0,1,0-2.29,2.28l6.53,6.49a1.62,1.62,0,0,0,2.29,0A1.58,1.58,0,0,0,21.46,13.39Z"/><path class="cls-6" d="M21.44.47a1.61,1.61,0,0,0-2.28,0l-6.5,6.46a1.6,1.6,0,0,0,0,2.27c.35.35,1.69,1.64,1.69,1.64s-.34-.72.59-1.64l6.5-6.46A1.6,1.6,0,0,0,21.44.47Z"/></g></g></svg>